<svg xmlns="http://www.w3.org/2000/svg" viewBox="0 0 100 100" fill="none" stroke-linecap="round" stroke-linejoin="round">
  <g stroke-width="4">
    <rect x="25" y="20" width="50" height="70" rx="5" stroke="currentColor" />
    <path d="M40 20 V 15 C 40 12 42 10 45 10 H 55 C 58 10 60 12 60 15 V 20" stroke="currentColor" />
    <line x1="35" y1="20" x2="65" y2="20" stroke="currentColor" />
    <circle cx="50" cy="50" r="5" stroke="currentColor" />
    <circle cx="40" cy="40" r="3" stroke="currentColor" />
    <circle cx="60" cy="40" r="3" stroke="currentColor" />
    <circle cx="38" cy="60" r="3" stroke="currentColor" />
    <circle cx="62" cy="60" r="3" stroke="currentColor" />
    <line x1="47" y1="47" x2="42" y2="42" stroke="currentColor" stroke-width="2" />
    <line x1="53" y1="47" x2="58" y2="42" stroke="currentColor" stroke-width="2" />
    <line x1="47" y1="53" x2="40" y2="58" stroke="currentColor" stroke-width="2" />
    <line x1="53" y1="53" x2="60" y2="58" stroke="currentColor" stroke-width="2" />
    <line x1="35" y1="75" x2="45" y2="75" stroke="currentColor" />
    <line x1="35" y1="82" x2="65" y2="82" stroke="currentColor" />
  </g>
</svg>
